<svg width="262" height="233" viewBox="0 0 262 233" fill="none" xmlns="http://www.w3.org/2000/svg">
<path d="M258.696 75.0133C255.957 53.6328 241.858 33.547 222.011 25.4368C210.447 17.3599 195.406 15.5908 181.209 14.1697C155.441 11.5947 129.362 9.0239 103.739 12.7817C75.3362 16.9476 47.2874 29.6753 29.4637 52.1765C11.638 74.6798 6.01996 107.76 19.9926 132.837C28.573 148.239 43.5254 159.404 59.8534 166.052C76.1835 172.699 93.9098 175.179 111.501 176.343C134.222 177.845 157.301 177.215 179.345 171.517C201.388 165.816 222.439 154.772 237.618 137.802C252.798 120.83 261.588 97.5974 258.696 75.0133Z" fill="white"/>
<path d="M177.422 205.03C180.66 207.678 185.143 208.225 189.319 207.966C192.031 207.798 194.788 207.315 197.142 205.956C198.25 205.316 199.25 204.49 200.093 203.524C201.933 201.419 202.987 198.675 203.197 195.886C203.406 193.098 202.793 190.277 201.599 187.747C200.164 184.706 197.784 181.999 194.666 180.739C192.037 179.674 189.058 179.703 186.309 180.402C183.989 180.992 181.787 182.044 179.861 183.469C176.507 185.947 173.975 189.657 173.356 193.782C172.734 197.906 174.193 202.391 177.422 205.03" fill="white"/>
<path d="M232.397 216.076C233.651 214.845 234.169 213.026 234.237 211.272C234.359 208.106 233.112 204.91 230.879 202.662C228.646 200.415 225.458 199.147 222.29 199.248C218.883 199.358 215.591 201.036 213.351 203.609C211.112 206.18 209.913 209.594 209.859 213.004C209.83 214.82 210.182 216.78 211.481 218.048C212.633 219.173 214.313 219.548 215.912 219.732C220.6 220.271 225.429 219.558 229.762 217.689C230.713 217.279 231.658 216.801 232.397 216.076" fill="white"/>
<path d="M240.949 230.604C245.427 231.318 249.958 229.553 253.801 227.144C255.24 226.243 256.659 225.205 257.531 223.749C258.404 222.292 258.611 220.322 257.633 218.935C256.755 217.689 255.172 217.178 253.678 216.879C250.302 216.2 246.788 216.206 243.414 216.896C241.023 217.383 238.624 218.259 236.893 219.976C235.159 221.694 234.245 224.395 235.157 226.657C236.07 228.926 238.535 230.218 240.949 230.604" fill="white"/>
<path d="M33.031 35.0447C40.7682 27.9621 49.3901 23.6678 57.1315 20.5273C61.0094 18.9426 64.6802 17.5961 68.0527 16.3407C71.4252 15.0833 74.518 13.9874 77.3436 13.1443C82.6447 11.5264 86.9971 10.9277 90.0816 10.8532C88.6046 11.2302 87.1337 11.6155 85.6899 12.0339C71.8913 15.9678 59.665 21.7164 49.4709 28.3909C39.2477 35.0468 31.1459 42.697 24.9333 50.0697C19.8186 56.1021 15.8288 61.8341 12.5744 66.8638C12.9908 65.5152 13.4382 64.1853 13.9333 62.8864C18.2587 51.4307 25.2917 42.0196 33.031 35.0447V35.0447ZM130.922 8.84578C146.774 8.84578 163.508 10.4886 180.406 13.9025C188.833 15.6674 197.299 18.0311 205.426 21.4864C213.546 24.9128 221.356 29.4702 227.999 35.5129C241.487 47.4533 248.27 65.2521 248.033 82.1477C247.905 86.3696 247.607 90.581 246.652 94.6268C246.474 95.6522 246.231 96.6569 245.927 97.6451L245.086 100.618C244.34 102.528 243.776 104.508 242.855 106.321C239.577 113.774 234.711 120.302 229.226 125.878C218.128 137.038 204.647 144.435 191.625 149.705C178.533 154.965 165.633 158.023 153.728 159.634C129.806 162.684 110.111 159.904 97.042 156.788C95.4034 156.388 93.8539 156.009 92.3997 155.653C90.9496 155.282 89.6217 154.836 88.3726 154.478C85.8764 153.743 83.7654 153.111 82.1041 152.473C78.7502 151.278 76.9873 150.65 76.9873 150.65C76.9873 150.65 78.7316 151.329 82.0502 152.622C83.6971 153.31 85.7893 154 88.269 154.805C89.5119 155.199 90.8315 155.682 92.2774 156.09C93.7254 156.485 95.2688 156.906 96.9032 157.351C109.935 160.813 129.688 164.096 153.95 161.478C166.025 160.08 179.163 157.213 192.559 152.067C205.875 146.905 219.773 139.565 231.442 128.095C235.13 124.428 238.566 120.329 241.498 115.798C241.199 116.463 240.905 117.128 240.582 117.803C236.907 125.284 231.645 133.332 224.215 140.733C216.821 148.152 207.371 154.917 196.278 160.243C185.193 165.59 172.463 169.429 158.752 171.334C145.04 173.298 130.392 173.4 115.35 172.001C100.315 170.589 84.7764 167.991 69.77 162.611C54.7761 157.3 41.2033 149.111 30.7233 138.461C25.5278 133.12 21.0698 127.235 17.7201 120.913C14.3124 114.626 12.0586 107.908 10.7535 101.196C8.59495 90.0362 9.24334 78.8995 11.9964 68.9209C15.5699 63.6052 20.0175 57.3781 25.822 50.8424C32.1444 43.6727 40.2835 36.3167 50.4735 29.9549C60.6344 23.5787 72.751 18.1388 86.3735 14.4784C99.9753 10.7703 115.054 8.86236 130.922 8.84578V8.84578ZM7.67103 101.767C8.94504 108.79 11.2279 115.856 14.7392 122.487C18.1862 129.149 22.7996 135.343 28.1773 140.943C39.0095 152.106 53.0981 160.649 68.5146 166.108C83.9519 171.639 99.793 174.212 115.036 175.544C130.311 176.859 145.237 176.615 159.211 174.435C173.184 172.316 186.166 168.186 197.396 162.524C208.643 156.879 218.166 149.767 225.545 142.032C232.963 134.307 238.119 125.98 241.647 118.301C242.96 115.361 244.042 112.513 244.924 109.784C245.266 109.099 245.61 108.415 245.927 107.711C246.915 105.79 247.538 103.708 248.338 101.687L249.254 98.5482C249.583 97.5042 249.846 96.4435 250.045 95.3622C251.079 91.0886 251.433 86.6492 251.59 82.1912C251.638 77.7208 251.244 73.2173 250.455 68.7407C249.542 64.293 248.371 59.8371 246.567 55.5738C243.076 47.0308 237.576 39.0657 230.496 32.7598C223.471 26.3712 215.274 21.6252 206.855 18.1015C198.424 14.5488 189.725 12.1706 181.124 10.4202C163.891 7.04562 147.02 5.54168 130.897 5.71155C116.726 5.88141 103.17 7.56351 90.7258 10.6791C90.7113 10.6791 90.6968 10.6771 90.6823 10.6771C87.5647 10.5838 82.9182 11.0168 77.1862 12.5849C74.3171 13.3514 71.1745 14.3644 67.7648 15.5286C64.3571 16.6908 60.6448 17.9399 56.7006 19.4335C48.8432 22.3834 39.9003 26.5576 31.8046 33.6506C23.7069 40.6317 16.2597 50.1692 11.5676 61.9667C10.0036 65.8529 8.80624 70.0022 7.94861 74.3007C5.66576 78.1144 3.91116 81.2425 2.62058 83.5543C0.903264 86.6741 6.10352e-05 88.3127 6.10352e-05 88.3127C6.10352e-05 88.3127 0.950919 86.701 2.75939 83.633C3.98575 81.576 5.6202 78.8498 7.67933 75.5747C6.17331 83.9003 6.05522 92.808 7.67103 101.767" fill="#361E17"/>
<path d="M74.7169 7.77683C77.3809 7.39153 80.3971 6.85915 83.7634 6.49248C87.1193 6.06367 90.7921 5.59961 94.7529 5.26609C98.7013 4.82692 102.94 4.59287 107.389 4.27178C116.299 3.79118 126.102 3.55084 136.387 3.76836C146.67 4.04595 156.448 4.76067 165.327 5.66801C169.754 6.20454 173.977 6.64164 177.899 7.27346C181.839 7.79756 185.487 8.43767 188.818 9.02806C192.164 9.55631 195.149 10.2316 197.792 10.7475C200.437 11.2467 202.7 11.7605 204.545 12.2017C208.249 13.0407 210.298 13.5047 210.298 13.5047C210.298 13.5047 208.303 12.8397 204.699 11.6403C202.896 11.0333 200.68 10.3207 198.074 9.60603C195.472 8.87685 192.524 7.97156 189.205 7.2113C185.901 6.3889 182.27 5.51469 178.332 4.76893C174.41 3.9196 170.176 3.27329 165.72 2.5586C156.79 1.29288 146.896 0.335807 136.476 0.0540752C126.056 -0.167581 116.125 0.310952 107.145 1.14579C102.66 1.64503 98.3989 2.08627 94.4422 2.74502C90.4731 3.3002 86.8044 3.99831 83.463 4.65914C80.1112 5.25989 77.124 6.02221 74.489 6.62297C71.8519 7.21129 69.6043 7.81619 67.7751 8.33822C64.1167 9.36157 62.0928 9.92916 62.0928 9.92916C62.0928 9.92916 64.1603 9.5625 67.9015 8.90375C69.7659 8.55366 72.0487 8.14971 74.7169 7.77683" fill="#361E17"/>
<path d="M183.018 177.118C183.79 177.153 184.576 177.205 185.392 177.294C187.869 177.624 190.525 178.342 192.905 179.865C195.279 181.377 197.365 183.697 198.807 186.523C200.241 189.338 201.08 192.688 200.781 196.013C200.52 199.313 198.931 202.575 196.247 204.657C193.626 206.762 190.067 207.052 186.537 206.704C182.96 206.35 179.548 205.726 177.232 203.914C174.872 202.151 173.58 199.298 173.163 196.524C172.733 193.728 173.045 190.987 173.839 188.65C175.411 183.89 178.348 180.725 180.524 178.906C181.52 178.077 182.382 177.518 183.018 177.118V177.118ZM172.103 187.99C171.003 190.488 170.373 193.537 170.64 196.823C170.897 200.063 172.19 203.769 175.266 206.356C178.355 208.97 182.39 209.745 186.16 210.24C188.108 210.468 190.183 210.572 192.34 210.226C194.482 209.907 196.717 209.016 198.515 207.599C202.151 204.794 204.112 200.419 204.326 196.278C204.574 192.112 203.394 188.222 201.556 185.019C199.708 181.81 197.102 179.252 194.194 177.675C191.273 176.093 188.219 175.556 185.541 175.444C180.142 175.341 176.024 176.42 173.165 176.94C170.311 177.51 168.73 177.824 168.73 177.824C168.73 177.824 170.342 177.76 173.248 177.516C175.579 177.369 178.804 176.965 182.595 177.101C181.945 177.408 181.122 177.829 180.18 178.438C177.746 180.027 174.292 182.958 172.103 187.99" fill="#361E17"/>
<path d="M213.969 200.533C215.5 200.404 217.151 200.34 218.97 200.467C221.178 200.62 223.57 201.047 225.938 201.966C228.217 202.88 230.895 204.239 232.23 206.184C233.518 208.065 233.338 211.063 231.867 213.3C230.384 215.618 227.705 217.373 224.708 218.576C221.731 219.776 218.503 220.36 215.537 220.293C212.647 220.196 209.757 219.193 208.572 217.302C207.305 215.483 207.905 212.641 208.55 210.155C209.21 207.669 210.167 205.453 211.359 203.63C212.144 202.397 213.041 201.384 213.969 200.533V200.533ZM209.857 202.536C208.342 204.407 207.064 206.75 206.126 209.397C205.664 210.727 205.229 212.086 205.003 213.693C204.771 215.264 204.908 217.215 205.877 218.901C206.824 220.59 208.405 221.81 210.064 222.562C211.736 223.326 213.525 223.72 215.351 223.844C218.959 224.035 222.595 223.417 226.096 222.021C229.522 220.633 232.87 218.504 234.891 215.168C236.897 211.862 237.1 207.462 234.775 204.355C233.636 202.865 232.2 201.931 230.854 201.217C229.485 200.527 228.122 199.924 226.742 199.557C224.008 198.745 221.366 198.534 219.007 198.61C218 198.644 217.072 198.743 216.167 198.855C217.316 198.14 218.441 197.649 219.413 197.372C220.612 197.007 221.602 196.906 222.269 196.881C222.939 196.852 223.297 196.875 223.297 196.875C223.297 196.875 222.949 196.794 222.274 196.721C221.6 196.647 220.581 196.599 219.284 196.806C217.617 197.042 215.394 197.805 213.208 199.36C211.216 199.802 209.529 200.351 208.228 200.829C205.817 201.749 204.566 202.422 204.566 202.422C204.566 202.422 205.915 201.962 208.396 201.386C209.258 201.196 210.31 201.001 211.441 200.825C210.899 201.343 210.364 201.896 209.857 202.536" fill="#361E17"/>
<path d="M240.304 218.918C238.699 219.931 237.887 220.583 237.887 220.583C237.887 220.583 238.83 220.126 240.565 219.436C242.301 218.775 244.87 217.863 248.075 217.484C249.67 217.317 251.427 217.292 253.192 217.654C254.068 217.849 254.963 218.081 255.806 218.485C256.606 218.835 257.641 219.405 258.006 219.831C258.182 220.068 258.159 220.082 258.161 220.289C258.153 220.499 258.056 220.873 257.869 221.306C257.438 222.203 256.985 223.113 256.301 223.9C255.004 225.51 253.183 226.84 251.079 227.753C248.98 228.696 246.714 229.184 244.516 229.356C242.333 229.489 240.068 229.373 238.51 228.677C236.949 228.02 236.221 226.651 236.178 224.942C236.124 223.274 236.683 221.621 237.41 220.264C238.904 217.507 241.164 215.904 242.784 215.1C243.604 214.684 244.296 214.458 244.767 214.313C245.243 214.184 245.496 214.118 245.496 214.118C245.496 214.118 245.235 214.131 244.738 214.155C244.24 214.203 243.501 214.288 242.575 214.557C240.756 215.077 238.026 216.333 235.846 219.262C234.796 220.716 233.841 222.564 233.64 224.857C233.549 225.992 233.657 227.27 234.237 228.513C234.802 229.762 235.886 230.825 237.085 231.469C239.538 232.75 242.084 232.924 244.684 232.909C247.294 232.816 250.003 232.302 252.583 231.15C255.157 230.03 257.486 228.288 259.12 226.067C259.972 224.981 260.546 223.726 261.026 222.498C261.246 221.849 261.463 221.095 261.418 220.163C261.403 219.227 260.85 218.162 260.233 217.627C259.62 217.056 259.017 216.728 258.476 216.488C257.925 216.237 257.389 215.98 256.825 215.819C255.723 215.423 254.602 215.249 253.535 215.139C251.391 214.947 249.436 215.237 247.739 215.657C244.344 216.55 241.92 217.934 240.304 218.918" fill="#361E17"/>
<path d="M84.375 96.3V98H81.525L75.25 88.675V96.3H76.875V98H71.625V96.3H73.2V80.95H71.625V79.25H76.875V80.95H75.15V87.925L81.525 79.25H84.225V80.95H82.55L77.35 88.25L82.775 96.3H84.375ZM86.3867 87.95C86.3867 86.3 87.2451 85.475 88.9617 85.475H93.1867C94.0034 85.475 94.5951 85.6333 94.9617 85.95C95.3284 86.2667 95.5117 86.85 95.5117 87.7V90.025L88.3867 94.525V96.3H93.5367V94.85H95.5117V96.175C95.5117 96.675 95.3534 97.1083 95.0367 97.475C94.7367 97.825 94.2284 98 93.5117 98H88.3867C87.6701 98 87.1534 97.825 86.8367 97.475C86.5367 97.1083 86.3867 96.675 86.3867 96.175V87.95ZM88.3867 92.5L93.5117 89.275V87.2H88.3867V92.5ZM101.383 96.3H106.683V87.025L101.383 90.35V96.3ZM97.7828 102.55H99.3328V87.225H97.7578V85.5H101.383V88.35L105.708 85.625C106.108 85.375 106.533 85.25 106.983 85.25C107.433 85.25 107.824 85.3917 108.158 85.675C108.508 85.9417 108.683 86.3417 108.683 86.875V95.65C108.683 96.4167 108.574 96.9417 108.358 97.225C107.941 97.7417 107.299 98 106.433 98H101.383V102.55H103.033V104.25H97.7828V102.55ZM113.266 98C112.416 98 111.816 97.8083 111.466 97.425C111.116 97.025 110.941 96.475 110.941 95.775V87.725C110.941 87.0583 111.091 86.525 111.391 86.125C111.708 85.7083 112.333 85.5 113.266 85.5H117.891C118.808 85.5 119.425 85.7083 119.741 86.125C120.058 86.525 120.216 87.0583 120.216 87.725V95.775C120.216 96.475 120.041 97.025 119.691 97.425C119.341 97.8083 118.741 98 117.891 98H113.266ZM112.966 96.3H118.191V87.2H112.966V96.3ZM141.586 85.5V101.325C141.586 102.025 141.411 102.558 141.061 102.925C140.728 103.292 140.136 103.475 139.286 103.475H133.511V100.075H135.211V101.75H139.536V95.175L135.136 97.9C134.753 98.1333 134.369 98.25 133.986 98.25C133.603 98.25 133.269 98.125 132.986 97.875C132.703 97.6083 132.561 97.1917 132.561 96.625V87.2H130.961V85.5H134.586V96.275L139.561 93.15V87.2H138.336V85.5H141.586ZM154.152 96.3V98H145.452C144.602 98 144.027 97.8333 143.727 97.5C143.46 97.2 143.327 96.6333 143.327 95.8V94.875C143.327 94.275 143.402 93.8667 143.552 93.65C143.769 93.3333 144.26 92.9417 145.027 92.475L150.527 89.05V87.2H145.627V88.65H144.027V85.5H150.277C151.127 85.5 151.719 85.6833 152.052 86.05C152.402 86.4167 152.577 86.95 152.577 87.65V96.3H154.152ZM150.527 91.05L145.327 94.3V96.3H150.527V91.05ZM173.921 86.75C173.921 88.45 173.138 89.3 171.571 89.3H168.346V93.15H166.346V89.775C166.346 88.9917 166.538 88.4333 166.921 88.1C167.305 87.75 167.905 87.575 168.721 87.575H171.771V80.95H166.221V83.8H164.396V79.25H171.121C172.038 79.25 172.73 79.4333 173.196 79.8C173.68 80.1667 173.921 80.875 173.921 81.925V86.75ZM167.346 95.525C167.696 95.525 167.996 95.6583 168.246 95.925C168.496 96.1917 168.621 96.5 168.621 96.85C168.621 97.2 168.496 97.5 168.246 97.75C167.996 97.9833 167.696 98.1 167.346 98.1C166.996 98.1 166.696 97.9833 166.446 97.75C166.196 97.5 166.071 97.2 166.071 96.85C166.071 96.5 166.196 96.1917 166.446 95.925C166.696 95.6583 166.996 95.525 167.346 95.525ZM185.958 86.75C185.958 88.45 185.174 89.3 183.608 89.3H180.383V93.15H178.383V89.775C178.383 88.9917 178.574 88.4333 178.958 88.1C179.341 87.75 179.941 87.575 180.758 87.575H183.808V80.95H178.258V83.8H176.433V79.25H183.158C184.074 79.25 184.766 79.4333 185.233 79.8C185.716 80.1667 185.958 80.875 185.958 81.925V86.75ZM179.383 95.525C179.733 95.525 180.033 95.6583 180.283 95.925C180.533 96.1917 180.658 96.5 180.658 96.85C180.658 97.2 180.533 97.5 180.283 97.75C180.033 97.9833 179.733 98.1 179.383 98.1C179.033 98.1 178.733 97.9833 178.483 97.75C178.233 97.5 178.108 97.2 178.108 96.85C178.108 96.5 178.233 96.1917 178.483 95.925C178.733 95.6583 179.033 95.525 179.383 95.525ZM197.994 86.75C197.994 88.45 197.21 89.3 195.644 89.3H192.419V93.15H190.419V89.775C190.419 88.9917 190.61 88.4333 190.994 88.1C191.377 87.75 191.977 87.575 192.794 87.575H195.844V80.95H190.294V83.8H188.469V79.25H195.194C196.11 79.25 196.802 79.4333 197.269 79.8C197.752 80.1667 197.994 80.875 197.994 81.925V86.75ZM191.419 95.525C191.769 95.525 192.069 95.6583 192.319 95.925C192.569 96.1917 192.694 96.5 192.694 96.85C192.694 97.2 192.569 97.5 192.319 97.75C192.069 97.9833 191.769 98.1 191.419 98.1C191.069 98.1 190.769 97.9833 190.519 97.75C190.269 97.5 190.144 97.2 190.144 96.85C190.144 96.5 190.269 96.1917 190.519 95.925C190.769 95.6583 191.069 95.525 191.419 95.525Z" fill="black"/>
</svg>
