<svg width="286" height="173" viewBox="0 0 286 173" fill="none" xmlns="http://www.w3.org/2000/svg">
<path d="M268.74 129.606C258.786 141.235 245.212 149.355 230.867 154.695C216.522 160.038 201.345 162.752 186.195 164.938C165.208 167.963 143.909 170.023 122.814 167.873C101.721 165.723 82.2353 160.773 68.4243 150.598C52.5172 138.879 39.9494 121.605 39.3181 101.858C38.9196 89.3894 42.6285 77.3756 49.0238 66.7068C32.0135 55.1872 18.9063 37.825 13.1252 18.0816C29.2643 29.5873 46.4869 39.5626 64.4692 47.8979C69.1132 43.6236 74.1937 39.8216 79.5466 36.6194C102.545 22.86 129.795 18.2529 156.471 15.6804C170.023 14.3752 183.619 13.5263 197.229 13.1357C209.38 12.787 221.709 12.8268 233.455 15.9613C256.299 22.0589 275.459 40.4613 282.469 63.0422C289.479 85.6252 284.113 111.642 268.74 129.606" fill="white"/>
<path d="M262.785 130.664C254.191 137.572 244.895 141.978 236.371 145.465C219.19 152.208 204.884 156.383 194.973 159.145C190.013 160.51 186.139 161.482 183.511 162.128C180.879 162.762 179.496 163.094 179.496 163.094C179.496 163.094 180.865 162.71 183.471 161.979C186.076 161.239 189.909 160.133 194.817 158.609C204.609 155.534 218.793 150.925 235.679 143.817C244.038 140.163 253.065 135.613 261.231 128.779C269.312 122.006 276.67 112.664 279.375 101.16C282.071 89.7022 280.022 76.706 274.058 65.3338C268.096 53.8879 258.256 44.1816 246.796 36.5516C235.251 28.9556 222.755 23.4139 210.251 19.5999C197.719 15.8158 185.191 13.6698 173.177 12.6435C149.122 10.6967 127.115 12.7073 109.593 17.8583C91.9929 22.9138 79.1806 30.9682 71.2598 37.4005C67.2846 40.6366 64.4287 43.4343 62.5769 45.4031C60.7275 47.3758 59.7981 48.4539 59.7981 48.4539C59.7981 48.4539 60.683 47.34 62.4641 45.2995C64.2473 43.261 67.0098 40.3577 70.9019 36.9721C78.6506 30.2488 91.3477 21.7122 109.075 16.1487C126.725 10.4915 148.99 7.99858 173.408 9.63656C185.617 10.5113 198.402 12.5519 211.235 16.324C224.046 20.132 236.875 25.7454 248.779 33.5786C260.604 41.4516 270.876 51.6063 277.095 63.7616C283.306 75.8273 285.359 89.6245 282.304 101.87C280.789 107.985 277.992 113.541 274.558 118.329C271.117 123.131 267.064 127.218 262.785 130.664" fill="#361E17"/>
<path d="M13.0403 13.0261C23.3159 22.4893 34.5006 29.932 45.2999 35.4238C48.0039 36.7928 50.6739 38.068 53.3172 39.1959C54.6312 39.7798 55.9398 40.3237 57.2396 40.8299C58.5115 41.3121 59.9429 42.0115 60.6754 41.9637C61.3347 42.0295 62.233 41.1288 63.2465 40.2042C64.2217 39.3075 65.1979 38.4487 66.1592 37.6137C68.0911 35.9518 69.971 34.3896 71.8126 32.9588C79.1536 27.202 85.5993 23.2644 90.107 20.6919C94.6349 18.1413 97.2286 16.9138 97.2286 16.9138C97.2286 16.9138 94.7362 18.3406 90.3981 21.1682C86.0798 24.0177 79.9218 28.3039 72.9474 34.3397C71.1969 35.8382 69.4136 37.4663 67.5812 39.1859C66.6697 40.0508 65.7443 40.9375 64.8195 41.8581C64.3463 42.3104 63.922 42.7788 63.3135 43.3008C62.7334 43.797 61.8522 44.341 60.8218 44.4027C59.8285 44.4665 59.0081 44.1955 58.3192 43.9703C57.6584 43.7352 56.9929 43.4981 56.3212 43.2589C54.9783 42.7907 53.6263 42.2826 52.2673 41.7326C49.5335 40.6705 46.7695 39.4509 43.9688 38.1278C32.7857 32.8233 21.1706 25.3727 10.6241 15.6604C10.4257 15.4811 10.2406 15.2997 10.0443 15.1184C19.2419 35.4517 31.1401 51.411 41.0118 62.0917C42.3623 60.3481 43.6109 58.9633 44.6134 57.9968C45.3708 57.1938 46.0447 56.6796 46.451 56.2871C46.8723 55.9105 47.0879 55.7191 47.0879 55.7191C47.0879 55.7191 46.8817 55.9204 46.4783 56.3169C46.09 56.7274 45.4432 57.2694 44.7238 58.1044C43.7579 59.1206 42.5615 60.5713 41.2787 62.3846C46.8364 68.4125 51.6671 72.9119 55.0897 75.897C56.7859 77.4273 58.1807 78.5114 59.0844 79.2945C60.0006 80.0657 60.4785 80.4682 60.4785 80.4682C60.4785 80.4682 59.9725 80.1015 59.0027 79.4021C58.046 78.6847 56.5732 77.6964 54.7768 76.2776C51.2048 73.5496 46.1685 69.4009 40.3594 63.7218C39.9228 64.3833 39.4831 65.0648 39.0361 65.82C38.8058 66.2086 38.577 66.6191 38.348 67.0356C41.3317 70.3653 44.07 73.3065 46.3149 75.626C49.7686 79.155 51.917 81.349 51.917 81.349C51.917 81.349 51.2538 80.9544 50.0582 80.245C48.861 79.5296 47.172 78.4297 45.1458 76.977C42.7134 75.2374 39.8168 72.9239 36.8123 70.1082C33.526 77.2958 30.8819 87.4505 31.3115 99.6337C31.4617 103.316 31.949 107.16 33.0449 110.988C34.1556 114.806 35.8976 118.604 38.2307 122.213C42.8714 129.472 49.6511 135.982 57.3821 141.958C65.0812 147.99 73.9547 153.284 83.6393 157.652C93.3584 161.951 103.951 165.213 115.067 167.022C126.183 168.839 137.277 169.005 147.957 168.564C158.65 168.066 168.949 167.086 178.679 165.605C198.161 162.724 215.286 157.712 229.131 152.222C242.986 146.697 253.486 140.583 260.482 136.032C262.218 134.868 263.786 133.87 265.103 132.943C266.4 131.989 267.496 131.182 268.385 130.528C270.162 129.223 271.095 128.539 271.095 128.539C271.095 128.539 270.194 129.265 268.479 130.65C267.618 131.341 266.556 132.196 265.298 133.208C264.019 134.193 262.491 135.257 260.797 136.492C253.968 141.336 243.632 147.878 229.819 153.87C216.02 159.826 198.815 165.334 179.155 168.582C169.339 170.246 158.936 171.378 148.116 171.98C137.297 172.524 125.954 172.42 114.498 170.549C103.056 168.69 92.1752 165.276 82.2353 160.773C72.3287 156.196 63.2985 150.636 55.5155 144.327C47.7238 138.088 40.8482 131.236 36.1569 123.506C33.8039 119.666 32.0617 115.607 30.9992 111.548C29.9539 107.481 29.5671 103.474 29.5251 99.6776C29.4581 87.054 32.5896 76.7439 36.2464 69.5762C34.4274 67.8386 32.577 65.9256 30.7713 63.8293C25.7904 58.0346 22.1739 52.0965 19.9112 47.6588C18.7748 45.4389 17.9387 43.6037 17.4102 42.3144C16.8855 41.0252 16.5952 40.3118 16.5952 40.3118C16.5952 40.3118 18.4454 42.7628 21.4205 46.7023C24.4103 50.6159 28.6415 55.8666 33.4793 61.4979C34.9995 63.2614 36.4847 64.9492 37.9224 66.5593C38.134 66.2086 38.3466 65.8579 38.5591 65.5291C39.0572 64.7619 39.5444 64.0665 40.0263 63.3989C28.1441 51.8135 13.2708 33.0963 3.29887 8.22776L0 0L6.22093 6.36659C7.71225 7.89297 10.2786 10.5273 13.0403 13.0261Z" fill="#361E17"/>
<path d="M85.407 83.41L83.36 75.314L81.313 83.41H85.407ZM90.168 89.436V91H85.683V89.436H86.925L85.775 84.859H80.945L79.795 89.436H81.06V91H76.575V89.436H78.024L82.026 73.75H84.74L88.673 89.436H90.168ZM101.935 89.436V91H99.9574L94.9664 85.204V89.436H96.3464V91H91.6544V89.436H93.1264V75.314H91.6544V73.75H94.8744V84.652L100.118 79.5H101.912V81.064H100.647L96.8984 84.905L100.739 89.436H101.935ZM106.578 91.046C105.382 91.046 104.784 90.4557 104.784 89.275V81.041H103.312V79.477H106.647V89.436L111.224 86.561V81.041H110.097V79.477H113.087V89.436H114.536V91H111.224V88.424L107.406 90.816C107.16 90.9693 106.884 91.046 106.578 91.046ZM135.649 89.436V91H131.21V89.436H132.314V80.926L127.737 83.801V89.436H128.864V91H124.425V89.436H125.874V75.314H124.425V73.75H127.737V81.938L131.555 79.546C131.846 79.362 132.191 79.27 132.59 79.27C132.989 79.27 133.349 79.431 133.671 79.753C134.008 80.0597 134.177 80.5043 134.177 81.087V89.436H135.649ZM146.996 89.436V91H138.992C138.21 91 137.681 90.8467 137.405 90.54C137.16 90.264 137.037 89.7427 137.037 88.976V88.125C137.037 87.573 137.106 87.1973 137.244 86.998C137.443 86.7067 137.896 86.3463 138.601 85.917L143.661 82.766V81.064H139.153V82.398H137.681V79.5H143.431C144.213 79.5 144.757 79.6687 145.064 80.006C145.386 80.3433 145.547 80.834 145.547 81.478V89.436H146.996ZM143.661 84.606L138.877 87.596V89.436H143.661V84.606ZM155.809 79.5C157.005 79.5 157.603 80.0903 157.603 81.271V83.318H155.74V81.087L152.152 83.364V89.436H153.279V91H148.84V89.436H150.289V81.041H148.84V79.477H152.152V81.501L154.981 79.73C155.226 79.5767 155.502 79.5 155.809 79.5ZM168.94 89.436V91H160.936C160.154 91 159.625 90.8467 159.349 90.54C159.104 90.264 158.981 89.7427 158.981 88.976V88.125C158.981 87.573 159.05 87.1973 159.188 86.998C159.388 86.7067 159.84 86.3463 160.545 85.917L165.605 82.766V81.064H161.097V82.398H159.625V79.5H165.375C166.157 79.5 166.702 79.6687 167.008 80.006C167.33 80.3433 167.491 80.834 167.491 81.478V89.436H168.94ZM165.605 84.606L160.821 87.596V89.436H165.605V84.606ZM174.119 89.436H178.995V80.903L174.119 83.962V89.436ZM170.807 95.186H172.233V81.087H170.784V79.5H174.119V82.122L178.098 79.615C178.466 79.385 178.857 79.27 179.271 79.27C179.685 79.27 180.046 79.4003 180.352 79.661C180.674 79.9063 180.835 80.2743 180.835 80.765V88.838C180.835 89.5433 180.736 90.0263 180.536 90.287C180.153 90.7623 179.563 91 178.765 91H174.119V95.186H175.637V96.75H170.807V95.186ZM198.981 88.976C198.981 90.3253 198.322 91 197.003 91H191.437V87.527H193.001V89.436H197.141V87.527L193.369 85.158C192.986 84.9127 192.656 84.7133 192.38 84.56C192.104 84.4067 191.874 84.2533 191.69 84.1C191.353 83.7933 191.184 83.3793 191.184 82.858V81.547C191.184 80.903 191.292 80.4583 191.506 80.213C191.92 79.7377 192.534 79.5 193.346 79.5H198.705V82.95H197.141V81.064H193.001V82.996L196.911 85.434C197.233 85.6333 197.517 85.8097 197.762 85.963C198.023 86.101 198.238 86.2467 198.406 86.4C198.79 86.722 198.981 87.1053 198.981 87.55V88.976ZM201.292 81.754C201.292 80.236 202.081 79.477 203.661 79.477H207.548C208.299 79.477 208.843 79.6227 209.181 79.914C209.518 80.2053 209.687 80.742 209.687 81.524V83.663L203.132 87.803V89.436H207.87V88.102H209.687V89.321C209.687 89.781 209.541 90.1797 209.25 90.517C208.974 90.839 208.506 91 207.847 91H203.132C202.472 91 201.997 90.839 201.706 90.517C201.43 90.1797 201.292 89.781 201.292 89.321V81.754ZM203.132 85.94L207.847 82.973V81.064H203.132V85.94ZM215.088 89.436H219.964V80.903L215.088 83.962V89.436ZM211.776 95.186H213.202V81.087H211.753V79.5H215.088V82.122L219.067 79.615C219.435 79.385 219.826 79.27 220.24 79.27C220.654 79.27 221.014 79.4003 221.321 79.661C221.643 79.9063 221.804 80.2743 221.804 80.765V88.838C221.804 89.5433 221.704 90.0263 221.505 90.287C221.122 90.7623 220.531 91 219.734 91H215.088V95.186H216.606V96.75H211.776V95.186ZM224.112 81.754C224.112 80.236 224.902 79.477 226.481 79.477H230.368C231.119 79.477 231.664 79.6227 232.001 79.914C232.338 80.2053 232.507 80.742 232.507 81.524V83.663L225.952 87.803V89.436H230.69V88.102H232.507V89.321C232.507 89.781 232.361 90.1797 232.07 90.517C231.794 90.839 231.326 91 230.667 91H225.952C225.293 91 224.817 90.839 224.526 90.517C224.25 90.1797 224.112 89.781 224.112 89.321V81.754ZM225.952 85.94L230.667 82.973V81.064H225.952V85.94ZM241.542 79.5C242.738 79.5 243.336 80.0903 243.336 81.271V83.318H241.473V81.087L237.885 83.364V89.436H239.012V91H234.573V89.436H236.022V81.041H234.573V79.477H237.885V81.501L240.714 79.73C240.96 79.5767 241.236 79.5 241.542 79.5ZM248.132 75.314V79.5H249.995V81.156H248.132V89.436H250.317V91H248.385C247.695 91 247.181 90.8237 246.844 90.471C246.506 90.103 246.338 89.482 246.338 88.608V81.156H244.636V79.5H246.338V75.314H248.132ZM255.501 89.436H256.996V91H252.166V89.436H253.615V81.064H252.166V79.5H255.501V89.436ZM254.558 75.268C254.88 75.268 255.148 75.3907 255.363 75.636C255.593 75.866 255.708 76.1497 255.708 76.487C255.708 76.809 255.593 77.085 255.363 77.315C255.148 77.5297 254.872 77.637 254.535 77.637C254.213 77.637 253.937 77.5297 253.707 77.315C253.492 77.085 253.385 76.809 253.385 76.487C253.385 76.1497 253.5 75.866 253.73 75.636C253.96 75.3907 254.236 75.268 254.558 75.268ZM80.485 117.436H81.98V119H77.15V117.436H78.599V109.064H77.15V107.5H80.485V117.436ZM79.542 103.268C79.864 103.268 80.1323 103.391 80.347 103.636C80.577 103.866 80.692 104.15 80.692 104.487C80.692 104.809 80.577 105.085 80.347 105.315C80.1323 105.53 79.8563 105.637 79.519 105.637C79.197 105.637 78.921 105.53 78.691 105.315C78.4763 105.085 78.369 104.809 78.369 104.487C78.369 104.15 78.484 103.866 78.714 103.636C78.944 103.391 79.22 103.268 79.542 103.268ZM87.3115 103.314V107.5H89.1745V109.156H87.3115V117.436H89.4965V119H87.5645C86.8745 119 86.3608 118.824 86.0235 118.471C85.6862 118.103 85.5175 117.482 85.5175 116.608V109.156H83.8155V107.5H85.5175V103.314H87.3115ZM94.3813 119.046C93.1853 119.046 92.5873 118.456 92.5873 117.275V109.041H91.1153V107.477H94.4503V117.436L99.0273 114.561V109.041H97.9003V107.477H100.89V117.436H102.339V119H99.0273V116.424L95.2093 118.816C94.964 118.969 94.688 119.046 94.3813 119.046ZM120.256 116.976C120.256 118.325 119.596 119 118.278 119H112.712V115.527H114.276V117.436H118.416V115.527L114.644 113.158C114.26 112.913 113.931 112.713 113.655 112.56C113.379 112.407 113.149 112.253 112.965 112.1C112.627 111.793 112.459 111.379 112.459 110.858V109.547C112.459 108.903 112.566 108.458 112.781 108.213C113.195 107.738 113.808 107.5 114.621 107.5H119.98V110.95H118.416V109.064H114.276V110.996L118.186 113.434C118.508 113.633 118.791 113.81 119.037 113.963C119.297 114.101 119.512 114.247 119.681 114.4C120.064 114.722 120.256 115.105 120.256 115.55V116.976ZM125.901 117.436H127.396V119H122.566V117.436H124.015V109.064H122.566V107.5H125.901V117.436ZM124.958 103.268C125.28 103.268 125.548 103.391 125.763 103.636C125.993 103.866 126.108 104.15 126.108 104.487C126.108 104.809 125.993 105.085 125.763 105.315C125.548 105.53 125.272 105.637 124.935 105.637C124.613 105.637 124.337 105.53 124.107 105.315C123.892 105.085 123.785 104.809 123.785 104.487C123.785 104.15 123.9 103.866 124.13 103.636C124.36 103.391 124.636 103.268 124.958 103.268ZM140.456 117.436V119H136.017V117.436H137.121V108.926L132.544 111.801V117.436H133.671V119H129.232V117.436H130.681V103.314H129.232V101.75H132.544V109.938L136.362 107.546C136.653 107.362 136.998 107.27 137.397 107.27C137.795 107.27 138.156 107.431 138.478 107.753C138.815 108.06 138.984 108.504 138.984 109.087V117.436H140.456ZM151.978 116.723C152.3 116.723 152.568 116.846 152.783 117.091C153.013 117.336 153.128 117.62 153.128 117.942C153.128 118.264 153.013 118.54 152.783 118.77C152.568 118.985 152.3 119.092 151.978 119.092C151.656 119.092 151.38 118.985 151.15 118.77C150.92 118.54 150.805 118.264 150.805 117.942C150.805 117.62 150.92 117.336 151.15 117.091C151.395 116.846 151.671 116.723 151.978 116.723ZM151.978 108.466C152.3 108.466 152.568 108.589 152.783 108.834C153.013 109.064 153.128 109.348 153.128 109.685C153.128 110.022 153.013 110.306 152.783 110.536C152.568 110.751 152.3 110.858 151.978 110.858C151.656 110.858 151.38 110.751 151.15 110.536C150.92 110.306 150.805 110.022 150.805 109.685C150.805 109.348 150.92 109.064 151.15 108.834C151.395 108.589 151.671 108.466 151.978 108.466ZM154.731 98.99C156.295 98.99 157.43 99.657 158.135 100.991C158.672 102.034 158.94 103.46 158.94 105.269V116.953C158.94 118.624 158.664 119.912 158.112 120.817C157.437 121.921 156.31 122.473 154.731 122.473V121.3C155.605 121.3 156.257 120.909 156.686 120.127C157.115 119.345 157.33 118.272 157.33 116.907V105.384C157.33 102.915 156.862 101.29 155.927 100.508C155.59 100.232 155.191 100.094 154.731 100.094V98.99Z" fill="black"/>
</svg>
